<svg viewBox="0 0 240 80" xmlns="http://www.w3.org/2000/svg">
  <!-- Background circle -->
  <circle cx="40" cy="40" r="35" fill="#10B981" opacity="0.1"/>

  <!-- Cannabis leaf icon -->
  <g transform="translate(40, 40)">
    <path d="M0 -18C0 -18 -5 -13 -5 -8C-5 -8 -10 -10 -12 -6C-12 -6 -15 -4 -13 0C-13 0 -15 0 -15 3C-15 6 -13 6 -13 6C-13 6 -14 8 -12 9C-12 9 -11 11 -9 10C-9 10 -9 12 -7 12C-5 12 -5 10 -5 10C-5 10 -3 11 -2 9C0 8 -1 6 -1 6C-1 6 1 6 1 3C1 0 -1 0 -1 0C0 -4 -2 -6 -2 -6C-3 -10 -5 -8 -5 -8C-5 -13 0 -18 0 -18Z"
          fill="#10B981"
          stroke="#059669"
          stroke-width="1"
          transform="scale(1.5)"/>
    <path d="M0 -5L0 8"
          stroke="#059669"
          stroke-width="2.5"
          stroke-linecap="round"
          transform="scale(1.5)"/>

    <!-- Reflection/symmetry -->
    <path d="M0 -18C0 -18 5 -13 5 -8C5 -8 10 -10 12 -6C12 -6 15 -4 13 0C13 0 15 0 15 3C15 6 13 6 13 6C13 6 14 8 12 9C12 9 11 11 9 10C9 10 9 12 7 12C5 12 5 10 5 10C5 10 3 11 2 9C0 8 1 6 1 6C1 6 -1 6 -1 3C-1 0 1 0 1 0C0 -4 2 -6 2 -6C3 -10 5 -8 5 -8C5 -13 0 -18 0 -18Z"
          fill="#10B981"
          stroke="#059669"
          stroke-width="1"
          transform="scale(1.5)"/>
  </g>

  <!-- CANNABIS text -->
  <text x="90" y="35"
        font-family="Inter, sans-serif"
        font-weight="800"
        font-size="22"
        fill="#1F2937"
        letter-spacing="-0.5">CANNABIS</text>

  <!-- TYCOON text -->
  <text x="90" y="58"
        font-family="Inter, sans-serif"
        font-weight="800"
        font-size="28"
        fill="#10B981"
        letter-spacing="-0.5">TYCOON</text>

  <!-- Gold accent line -->
  <rect x="90" y="62" width="140" height="3" fill="#F59E0B" rx="1.5"/>

  <!-- Decorative elements -->
  <circle cx="235" cy="40" r="2" fill="#10B981" opacity="0.6"/>
  <circle cx="230" cy="35" r="1.5" fill="#34D399" opacity="0.6"/>
  <circle cx="230" cy="45" r="1.5" fill="#059669" opacity="0.6"/>
</svg>
